<svg width="60" height="70" xmlns="http://www.w3.org/2000/svg" xml:space="preserve" style="enable-background:new 0 0 80.4 94.4" version="1.1">
 <style>.st0{fill:none;stroke:#636466;stroke-width:.325;stroke-miterlimit:1}.st1{fill:#636466}</style>

 <g>
  <title>background</title>
  <rect fill="none" id="canvas_background" height="72" width="62" y="-1" x="-1"/>
 </g>
 <g>
  <title>Layer 1</title>
  <path id="svg_1" d="m5.582771,10.134499l47.9,0l0,37.3l-47.9,0l0,-37.3zm47.9,33.3l-47.9,0m47.9,-4.2l-47.9,0m47.9,-8.1l-47.9,0m47.9,-4.2l-47.9,0m47.9,-4.3l-47.9,0m47.9,-4.2l-47.9,0m47.9,-4.2l-47.9,0m44.1,33.2l0,-37.3m-4.1,37.3l0,-37.3m-7.9,37.3l0,-37.3m-4,37.3l0,-37.3m-4,37.3l0,-37.3m-4.1,37.3l0,-37.3m-4,37.3l0,-37.3m-4,37.3l0,-37.3m-3.9,37.3l0,-37.3m-4,37.3l0,-37.3m43.8,25l-47.9,0m36,12.3l0,-37.3" class="st0"/>
  <path id="svg_2" d="m5.082771,69.234499l0,-0.6c0.5,-0.2 0.8,-0.4 1.1,-0.7c0,-0.3 0.1,-0.8 0.1,-1.5c0.1,-1.3 0.1,-2.2 0.1,-2.8l0,-7.3c0,-0.9 -0.1,-1.4 -0.2,-1.6c0,-0.1 -0.1,-0.1 -0.2,-0.2c-0.2,-0.1 -0.7,-0.2 -1.6,-0.2l0,-1l2.6,0.1l5,0l2.3,-0.1l1.7,0c0.1,0 0.2,0 0.4,0.1l0.1,0.1l-0.2,1.6c0,0.1 0,0.7 -0.1,1.6l-0.9,0c0,-0.9 0,-1.4 -0.1,-1.6c0,-0.1 -0.1,-0.2 -0.1,-0.2c-0.1,-0.1 -0.4,-0.1 -0.9,-0.2c-0.7,-0.1 -1.5,-0.1 -2.2,-0.1c-0.7,0 -1.4,0 -2.1,0.1c-0.1,0.9 -0.2,1.9 -0.2,3.3l0,2.3c0.5,0 1.1,0.1 1.6,0.1l1.9,0c0.4,0 0.6,0 0.7,-0.1c0.1,0 0.1,-0.1 0.2,-0.2c0.1,-0.3 0.1,-0.8 0.2,-1.4l0.9,0l0,5l-1,0c0,-0.9 0,-1.4 -0.2,-1.6c-0.1,-0.2 -0.3,-0.2 -0.5,-0.3c-0.5,-0.1 -1.2,-0.1 -2,-0.1c-0.7,0 -1.3,0 -1.8,0.1l0,6.2c0.6,0 1.3,0.1 2.2,0.1c0.8,0 1.6,0 2.3,-0.1c0.7,-0.1 1.1,-0.1 1.3,-0.2c0.1,0 0.1,-0.1 0.1,-0.2c0.1,-0.4 0.3,-1 0.4,-2.1l0.9,0c-0.2,1.5 -0.3,2.7 -0.3,3.7l-0.1,-0.1c-0.5,0.1 -1.2,0.1 -2.1,0.1l-5.5,0c-0.2,-0.1 -1.4,-0.1 -3.8,0zm12.6,-15l0,-0.9l6,0c0.9,0 1.7,-0.1 2.3,-0.1c1.2,0 2.1,0.1 2.7,0.3c0.6,0.2 1.1,0.5 1.5,1.1c0.4,0.5 0.6,1.2 0.6,2c0,0.9 -0.3,1.7 -0.9,2.5c-0.6,0.7 -1.4,1.3 -2.6,1.8c0.2,0.3 0.4,0.7 0.6,1c0.2,0.4 0.4,0.6 0.4,0.6c0,0.1 0.1,0.1 0.1,0.2l1.8,2.6c0.5,0.7 0.7,1.1 0.8,1.1c0.6,0.8 0.9,1.2 1,1.3c0.1,0.1 0.3,0.2 0.4,0.3c0.1,0.1 0.4,0.1 0.7,0.1l0,0.9l-4.3,0c0,-0.2 -0.1,-0.4 -0.3,-0.6l-2.4,-4c-0.7,-1.1 -1.3,-2.1 -1.8,-2.7c-0.2,-0.3 -0.5,-0.6 -0.7,-0.7l0.1,-0.4c0.9,0 1.6,-0.1 2.1,-0.3c0.5,-0.2 0.9,-0.6 1.2,-1.2c0.3,-0.6 0.5,-1.2 0.5,-1.9s-0.2,-1.3 -0.5,-1.7c-0.3,-0.5 -0.7,-0.8 -1.2,-1c-0.3,-0.1 -0.9,-0.2 -1.7,-0.2c-0.4,0 -0.7,0 -1.1,0.1c0,0.3 0,0.9 -0.1,1.8c0,2.1 -0.1,3.6 -0.1,4.3l0,3.6c0,1.6 0.1,2.4 0.1,2.7c0,0.4 0.1,0.7 0.1,0.8c0,0.1 0.1,0.1 0.1,0.2c0.1,0 0.2,0.1 0.3,0.1c0.2,0 0.6,0.1 1.3,0.1l0,1c-1.3,0 -2.6,-0.1 -3.9,-0.1c-1.2,0 -2.3,0 -3.3,0.1l0,-1c0.9,0 1.4,-0.1 1.5,-0.1c0.1,0 0.2,-0.1 0.2,-0.1c0,-0.1 0.1,-0.2 0.1,-0.3c0.1,-0.3 0.1,-0.7 0.1,-1.3l0.1,-3.3l0,-6.6c0,-0.9 -0.1,-1.5 -0.1,-1.7c0,-0.1 -0.1,-0.1 -0.2,-0.2c0,0 -0.5,-0.1 -1.5,-0.2zm16.3,15l0,-1c0.9,-0.1 1.4,-0.1 1.5,-0.2c0.1,0 0.2,-0.1 0.2,-0.2c0.1,-0.1 0.1,-0.2 0.1,-0.4c0.1,-0.4 0.1,-1.4 0.1,-2.8l0,-7.7c0,-1.2 -0.1,-1.9 -0.1,-2.1c0,-0.1 -0.1,-0.2 -0.1,-0.2c-0.1,-0.1 -0.2,-0.1 -0.4,-0.1c-0.5,-0.1 -1,-0.1 -1.4,-0.1l0,-1c1.6,0 2.6,0.1 3.2,0.1c0.8,0 1.6,0 2.3,-0.1l1,2.2l0.8,1.7l3.6,7.4c0.8,-1.5 1.3,-2.6 1.7,-3.5l1.5,-3.1c0.8,-1.8 1.3,-2.8 1.5,-3.2c0.2,-0.4 0.4,-0.9 0.6,-1.5c1,0.1 1.6,0.1 1.9,0.1l3.4,-0.1l0,1l-0.2,0c-0.8,0 -1.2,0.1 -1.5,0.3c-0.2,0.2 -0.3,0.5 -0.3,1.1l0,1.4l-0.1,3.2l0,5.7c0.1,1 0.1,1.5 0.2,1.8c0,0.1 0.1,0.2 0.1,0.3c0.1,0.1 0.1,0.1 0.3,0.1c0.1,0 0.6,0.1 1.4,0.1l0,1l-3.6,-0.1l-3.5,0.1l0,-1c0.9,0 1.5,-0.1 1.6,-0.2c0.1,-0.1 0.2,-0.3 0.3,-0.5c0.1,-0.3 0.1,-1.2 0.1,-2.8l0,-8.3l-2.6,5.3l-1.1,2.5c-0.3,0.7 -0.8,1.7 -1.4,3c-0.4,0.8 -0.7,1.4 -0.9,1.9l-0.7,0c-0.3,-0.6 -0.7,-1.5 -1.2,-2.6c-0.9,-1.9 -1.5,-3.3 -2,-4.2l-3,-6.1l0,8.9c0,1.3 0.1,2 0.1,2.2c0,0.2 0.1,0.3 0.1,0.4c0.1,0.1 0.2,0.1 0.3,0.2c0.2,0.1 0.6,0.1 1.4,0.1l0,1c-0.8,0 -1.7,-0.1 -2.6,-0.1c-1.1,0 -2,0 -2.6,0.1zm3.7,-22.5l15,-15.5l-7.2,-7.6l-3.3,3.7l-0.6,-0.4l3.8,-4.1l8.1,8.3l-15.8,16.3l-32.3,-33l0.4,-0.4l31.9,32.7z" class="st1"/>
  <path id="svg_3" fill="#008061" d="m13.282771,36.334499c0.1,-0.1 -0.1,-0.3 -0.4,-0.2c-0.1,-0.5 -0.4,-0.4 -0.4,-0.6c-0.2,-0.1 0.3,-0.5 0.4,-0.4l-0.2,-0.2l0,-0.2l-0.2,0l-0.4,-0.4c-0.3,-0.2 -0.4,-0.3 -0.2,-0.4c0.2,-0.2 -0.2,-0.5 -0.4,-0.4c0,0.1 -0.2,0 -0.2,-0.2l-0.1,-0.3c-0.2,0.1 -0.3,0 -0.2,-0.2c0.1,-0.2 0,-0.2 -0.2,-0.2c-0.4,0 -0.4,-0.2 -0.2,-0.4c0.3,0 0.2,-0.1 0,-0.2l-0.4,0l0,-0.2l0.2,-0.4l-0.2,-0.4c-0.3,0.5 -0.4,-0.2 -0.2,-0.4l-0.2,-0.2c-0.1,0 -0.3,-0.4 -0.4,-0.8c-0.3,0 -0.3,-0.4 0,-0.4l0.2,0c0.5,0.1 0.3,-0.3 -0.2,-0.4c-0.1,-0.1 -0.1,0 -0.2,0l-0.2,-0.2l0,-0.2l-0.2,-0.2l0.2,-0.2l0.2,-0.2l-0.2,-0.4l-0.2,0c-0.1,0 -0.1,-0.2 0,-0.4c-0.1,-0.1 -0.3,-0.2 -0.2,-0.2l0,-0.2l-0.4,-0.2l0,-0.6l-0.2,-0.2l0,-0.4l-0.2,-0.2c-0.4,0 -0.3,-0.1 0,-0.2c0,-0.1 -0.1,-0.2 -0.4,-0.2c-0.2,0 -0.3,-0.1 -0.4,-0.2c0.1,0 0.2,-0.1 0.2,-0.2c0.4,0 0.4,-0.2 0.2,-0.4l0,0.2c0.2,0 0.1,-0.2 0,-0.2l0,-0.2c-0.3,0.1 -0.3,-0.3 -0.2,-0.4c0.2,-0.2 0.2,-0.3 -0.2,-0.6l0,-0.4l-0.4,-0.2l0,-0.2l-0.2,-0.2l0.2,0c0.5,-0.1 0.2,-0.7 -0.2,-0.8l0.2,-0.2c0.3,0 0.3,-0.2 0.2,-0.4l0,-0.2l-0.2,-0.2c-0.2,0.1 -0.3,0 -0.2,-0.4c-0.1,0 -0.1,-0.1 0,-0.2c0.3,-0.3 0.2,-0.3 -0.2,-0.4c-0.5,0 -0.3,-0.4 0,-0.4c0.2,-0.1 0.3,-0.3 0,-0.4c-0.1,-0.1 -0.2,-0.3 -0.2,-0.4l-0.2,-0.2l0,-0.2l0.2,0c-0.1,-0.2 0,-0.4 0,-0.4c0.1,-0.3 0.1,-0.5 -0.2,-0.6l0,-0.2l0.2,0l-0.2,-0.2c-0.5,0.1 -0.4,-0.6 -0.4,-0.8c-0.1,-0.2 0,-0.4 0,-0.6l0,-2.1l-0.4,-0.2c0.1,-0.1 -0.1,-0.3 -0.2,-0.4l0,-0.2c0.2,-0.1 0.1,-0.5 0,-0.8l0.2,-0.4c0.4,0 0.1,-0.3 -0.2,-0.4l0,-0.2l0.2,-0.2c0.1,0 0.1,-0.1 0,-0.2l-0.2,-0.4l0,0.1c-0.2,-0.4 -0.1,-0.6 0,-0.8c0.1,0 0,-0.4 -0.2,-0.8l0,-0.2c-0.1,-0.2 -0.1,-0.3 0.2,-0.4c0.1,-0.1 0,-0.3 0,-0.6c-0.6,-0.4 -0.2,-0.4 0,-1l0,-0.6c-0.3,-0.3 -0.1,-0.6 0,-0.6l0.2,-0.2c-0.1,-0.1 -0.1,-0.2 0,-0.2l0,-0.4c-0.3,0.1 -0.2,-0.1 -0.2,-0.2c0.1,-0.2 0,-0.2 -0.2,-0.2l0,-0.2c0.1,0 0.2,-0.1 0.2,-0.2s0.1,-0.2 0.2,-0.2c-0.1,-0.1 -0.1,-0.3 0,-0.4l0,-0.4c-0.2,-0.1 -0.2,-0.4 0,-0.4c0,-0.1 0.1,-0.3 0.2,-0.4c-0.1,-0.1 -0.1,-0.2 0,-0.2c0.1,-0.3 0.2,-0.3 0.4,0l0,0.6c0.1,-0.1 0.1,0 0,0l0,0.4c0.2,0 0.2,0.2 0,0.4c0.1,0 0.1,0.1 0.2,0.2l0,0.4c0.1,0 0.1,0.2 0,0.4c0,0 0,0.1 0,0l0,2.3c0.1,0 0.1,0.1 0,0.2l0,0.4c0.2,-0.1 0.3,0.1 0.2,0.2c0,0.2 0,0.6 0.2,0.8c-0.1,0.3 -0.1,0.5 0,0.6c0,0.2 0.1,1.7 0.2,1.9c0.2,0 0.2,1 0,1.3c0.2,0.3 0.2,0.5 0.2,0.8c0,0.1 0.2,0.6 0.2,1l0,0.4c-0.1,0 0,0.2 0,0.4c0.1,-0.1 0.2,0 0.2,0.2l-0.2,0l0,0.2c0.3,0.1 0.3,0.8 0.2,1c0.3,0.1 0.5,1.2 0.4,1.3l0.2,0.4l-0.2,0l0,0.4c0.2,0.2 0.2,0.3 0.2,0.8c0.2,0.1 0.4,0.8 0.4,1.2c0.2,0.1 0.2,0.6 0.2,0.6l0,0.4c0,0.1 0.1,0.2 0.2,0.4c-0.1,0.2 0,0.2 0,0.4c0.1,0.3 0.1,0.4 0.2,0.6c0,0.1 0.3,0.8 0.4,1.2c0.1,0.2 0.2,0.5 0.2,0.8l0.2,0.5c-0.1,0.2 -0.1,0.2 0,0.2l0.1,0.3c0.1,-0.2 0.2,0.5 0.2,0.6c0.1,0.2 0.1,0.2 0.2,0.2c0.1,0.2 0.1,0.6 0,0.6l0,0.4c0.1,0.1 0.2,0.2 0.2,0.4l0,0.6c0.4,-0.2 0.6,0.4 0.6,1c0.2,0.1 0.3,0.1 0.4,0.2c-0.1,0.3 0,0.6 0,0.8c0.2,0.1 0.4,0.3 0.4,0.4c0,0.3 0.2,0.6 0.2,0.6c0.5,0.5 0.5,0.6 0.6,0.8c0.1,0.2 0.3,0.3 0.2,0.6c0.1,-0.1 0.2,0 0.2,0.2c0.3,0.2 0.3,0.3 0.2,0.6c-0.1,0 0,0.3 0.2,0.4c0.7,0.3 0.7,0.4 0.8,0.8l0,-0.2c0.2,0.3 1,1.2 1.3,1.7c0.3,0 0.3,0.2 0.2,0.4c0.2,-0.1 0.4,0.2 0.4,0.4c0.2,0 0.4,0.3 0.2,0.5l0.4,0.2l0.2,0.2l0,0.2c0,0.1 0.1,0.1 0.2,0.2c0.1,0 0.2,0.1 0.4,0l0,0.2c-0.2,0.2 0,0.4 0.2,0.4c0.2,0.1 0.3,0.3 0.4,0.6c0,0 0.2,0.1 0.2,0.4l0.6,0.4c0.4,-0.2 0.4,0.1 0.4,0.4l0.2,0.2l0.2,0.2l0.2,0.2l-0.1,0l0.2,0.2l0.2,0l0.2,0.2l0.4,0.2l0.2,0.2c0,0.2 0.1,0.4 0.2,0.3c0.1,0 0.3,0.2 0.4,0.2l0.2,0.2c0.1,0 0.4,0.1 0.6,0.2c0.1,0.2 0.3,0.3 0.6,0.4c0.2,0.2 0.9,0.6 1.3,1c0.1,0 0.1,0 0,0.2c1.3,0.1 1.3,0.7 1.3,1.2l0.4,0l0.2,-0.2c0.5,-0.3 0.8,0 1,0.2c0,0 0.2,0 0.2,0.2c0.1,0 0.1,0 0.2,0.2c0,0.1 0.3,0.2 0.4,0.2c0.1,-0.1 0.3,-0.1 0.4,0l0.4,0l0.4,0.2c0.1,-0.1 0.3,0 0.4,0c0.1,0.2 0.3,0.2 0.4,0c0.1,0.1 0.3,0.1 0.4,0.2l0.6,0.2l0.8,0c0.5,-0.1 1,0.2 1.2,0.2l0.2,0.2l0,-0.2l0.2,0l0,0.2l0.6,0l-0.2,0l0,-0.2l0.4,0l0,0.2l0.4,0c0.1,0.1 0.6,0 0.8,-0.2l1.2,0c0.1,0.1 0.9,0.1 1,0c0,0.1 0.1,0.2 0.2,0c0.2,0.1 1.1,0 1.2,0c0.2,0.1 0.2,0 0.4,-0.2c0.2,0 0.8,-0.2 1,-0.2c0.2,0.1 0.8,-0.1 0.8,-0.2c0.1,-0.1 0.4,-0.3 0.6,-0.4l0.2,0l0.2,-0.2l0.2,0c0.1,-0.1 0.1,-0.1 0.2,0c0,-0.2 0.2,-0.4 0.4,-0.2c0.1,0.1 0.1,0 0.2,-0.2c0.1,-0.3 0.5,-0.4 0.8,-0.4c0.1,0.1 0.2,0 0.4,-0.2c0,-0.1 0.4,-0.3 0.6,-0.2c0.1,-0.1 0.3,-0.2 0.4,-0.2c0.1,-0.2 0.1,-0.2 0.2,-0.2c0.1,-0.1 0.3,0 0.4,0c0.2,0 0.3,-0.1 0.2,-0.2c0.1,-0.2 0.4,-0.5 0.6,-0.4c0.2,0 0.7,-0.2 0.8,-0.6c0,-0.4 0.4,-0.6 0.6,-0.6c0.2,0.3 0.3,0 0.4,-0.4l0,-0.2c-0.1,0.1 0,0.1 0.2,0c0.3,0.2 0.4,0 0.4,-0.2c0.1,-0.5 0,-0.4 0.2,-0.6l0,-0.2l0.2,0l0,-0.2l0.2,0l0,-0.2l0.2,-0.2l0.2,-0.2l-0.4,0c0.1,-0.1 0.1,-0.1 0,0c0,-0.3 0.1,-0.4 0.2,-0.4s0.3,-0.1 0.2,-0.2c-0.3,-0.4 0,-0.5 0.2,-0.6c0.1,-0.2 0.2,-0.2 0,-0.4l0,-0.2l0.4,-0.2l0,-0.4s0,-0.2 0.2,-0.4c-0.1,0 0.1,-0.1 0.2,-0.2c-0.1,-0.3 -0.1,-0.4 0,-0.5c0,0 0.1,0 0,-0.2c0,-0.1 0.1,-0.3 0.2,-0.4c0.1,0 0.2,-0.2 0.2,-0.2c-0.2,-0.3 -0.1,-0.3 0,-0.4c0,0 0.1,-0.2 0,-0.4c0,0 0,-0.1 0.2,-0.2c-0.1,-0.1 0,-0.1 0,-0.2c-0.1,-0.3 -0.1,-0.9 0,-1.2c-0.1,-0.1 0,-0.1 0,-0.2c-0.4,-0.3 -0.3,-0.5 0,-0.6l0,-0.2c-0.2,-0.1 -0.1,-0.4 0,-0.4l0,-0.6c-0.2,-0.2 -0.1,-0.2 0,-0.2l0,-0.2c-0.2,-0.2 -0.2,-0.3 -0.2,-0.6c0.1,-0.1 0.1,-0.1 0,-0.4c-0.2,-0.2 -0.2,-0.2 0,-0.6c-0.2,-0.2 -0.2,-0.4 0,-0.6c0.1,-0.1 0.1,-0.1 0,-0.2l-0.4,-0.4c-0.1,-0.2 0,-0.3 -0.2,-0.4c-0.1,0 -0.2,-0.1 -0.2,-0.2c-0.3,-0.1 -0.2,-0.5 -0.2,-0.6l-0.2,-0.2c-0.4,-0.3 -0.2,-0.5 0,-0.6c0.4,-0.3 0,-0.5 -0.4,-0.4c-0.2,0.5 -0.3,0.4 -0.4,0.2c-0.2,0 -0.3,-0.1 -0.4,-0.2c0.1,-0.1 0.1,-0.1 0,-0.2c0.1,-0.1 0.1,-0.1 0,-0.2c-0.2,0.1 -0.4,0 -0.6,-0.2c0,0 0,-0.1 -0.2,-0.2c-0.1,0.1 -0.6,0 -0.8,-0.2c-0.2,0 -0.3,0 -0.4,-0.4c-0.1,0 -0.1,-0.2 -0.2,-0.2l-0.2,-0.2l-0.1,0.4c-0.1,0 -0.4,-0.1 -0.4,-0.2c0,-0.2 -0.2,-0.2 -0.2,0c-0.1,0 -0.7,0.3 -1.2,0.3l-0.1,-0.1c-0.3,0 -1,0.4 -1.2,0.8l-0.3,0.2c0,0.3 -0.1,0.4 -0.2,0.4c-0.3,0.1 -0.4,0.3 -0.2,0.4l-0.2,0.2l0,0.2l-0.2,0.2c-0.1,0.4 0,0.6 0.2,0.6l0.2,0l0.2,0.2c-0.1,-0.1 0.2,-0.2 0.4,-0.2c0.1,-0.2 0.4,-0.3 0.8,-0.2c0.4,-0.6 0.8,-0.3 0.8,0c0.1,0.2 0.6,0.4 0.8,0.4c0.2,-0.2 0.4,0.2 0.2,0.4l0,0.2l0.2,0.2l0,0.2l0.4,0c0.1,0 0.1,0.3 -0.2,0.3l-0.2,0.2c-0.2,0.3 0.1,0.3 0.2,0.2c0.3,-0.1 0.3,0.3 0.2,0.8l0,0.2l0.2,0.2c0.1,0.2 0.1,0.3 0,0.4c-0.2,0 -0.5,0.2 -0.6,0c-0.2,0 -0.3,0 -0.4,-0.2l-0.2,0.4l-0.6,0l-0.3,0.1c-0.2,0.3 -0.3,0.3 -0.4,0.2c-0.1,0 -0.2,0.1 -0.4,0.4c-0.2,0.1 -0.4,0.1 -0.4,0c0.1,-0.3 -0.1,-0.5 -0.2,-0.4l-0.2,0.2l-0.2,0l0,0.2l-0.2,0c-0.5,-0.2 -0.3,-0.2 0,-0.4l0.2,0.2l0.2,-0.2l0,-0.6l-0.2,-0.2c-0.2,0.1 -0.3,0 -0.2,-0.2c-0.1,-0.1 -0.4,-0.1 -0.4,0l0,0.4c0,0.1 -0.2,0.2 -0.2,-0.2l-0.4,0c-0.4,0.2 -0.5,-0.1 -0.4,-0.4c0.1,0 0.1,-0.1 -0.2,-0.2l-0.2,-0.2c0.1,0 0,-0.1 -0.2,-0.2c-0.1,0.1 -0.1,0.1 -0.2,0c-0.3,-0.2 -0.4,-0.3 -0.2,-0.4c0.2,-0.2 0.1,-0.3 -0.2,-0.4l0,-0.4c-0.3,-0.4 0.1,-0.6 0.2,-0.4c0.6,-0.2 0.3,-0.5 0,-0.4c0,0.1 -0.1,0.1 -0.3,0c-0.2,-0.4 -0.1,-0.6 0.2,-0.8l0,-0.2c-0.4,-0.1 -0.2,-0.3 -0.2,-0.4l0.2,-0.2l0.2,-0.2c0.3,0 0.2,-0.2 0,-0.4c-0.2,0.2 -0.2,-0.1 -0.2,-0.2l0,-0.4c0.1,0 0.1,-0.1 0.2,-0.2c-0.1,0 0,-0.2 0,-0.4c0.3,0 0.5,-0.2 0.4,-0.2l0,-0.2c0.3,-0.2 0.4,-0.5 0.2,-0.6c0.1,-0.1 0.3,-0.4 0.4,-0.4c0.1,0 0.2,-0.1 0.2,-0.2c0.2,-0.1 0.2,-0.3 0.4,-0.4c0.1,0 0.3,-0.1 0.4,-0.2l0.4,-0.6c0,0.1 0.2,0 0.4,-0.2l0.2,0c0.6,0.1 0.6,0 0.6,-0.2c-0.2,-0.1 0,0 0.2,0l0.4,0c0.1,0.2 0.4,0.1 0.4,0l0.2,-0.4l0.2,0l0,0.4l0.4,-0.2l0.4,0c0.2,0.1 0.9,0.2 1.2,0.4c0.3,0.1 0.5,0.1 0.6,0.2l0.2,0c0.3,0 0.5,0.2 0.8,0.4l0,0.2l0.4,0c0.1,0 0.5,0.1 0.8,0.6l0.2,0.2l0.4,0.4l0.4,0.2l0,0.2l0.4,0.4l-0.4,0l-0.2,-0.4c-0.1,-0.1 -0.2,-0.3 -0.6,-0.2c-0.1,-0.2 -0.3,0.2 -0.2,0.2c0.2,0 0.2,0.2 0.2,0.2c-0.1,0.1 -0.2,0.3 0.2,0.2c0.4,-0.1 0.4,0 0.4,0.2c-0.2,0.3 0.3,0.3 0.6,0.2c1.2,0.3 1.1,0.5 1.2,0.7c-0.3,0 -0.4,0.3 -0.2,0.4c0.3,0.1 0.2,0.4 0,0.4c-0.1,-0.1 -0.2,0 0,0.2c-0.1,0.1 0,0.2 0,0.2l0.2,0c-0.1,0 0,0 0,0c-0.1,0.2 0,0.3 0.2,0.4c0.3,0 0.3,0.3 0.2,0.6c-0.2,0 0,0.3 0.2,0.2c0.3,0 0.4,0.1 0.4,0.2c0.3,0.1 0.2,0.3 0,0.4l0,0.5c0.1,0.1 0.5,0.3 0.4,0.6c0.2,0.1 0.2,0.2 0,0.2c0.2,0.1 0.2,0.4 0,0.4c0.3,0.1 0.2,0.4 0,0.4c0.1,0 0.1,0.4 0,0.4c0.2,0.1 0.2,0.2 0.2,0.2c-0.1,0.1 -0.1,0.4 -0.2,0.4c0.2,0.1 0.4,0.2 0.4,0.4c0.1,0.1 0.1,0.2 0,0.2s-0.2,0.2 -0.2,0.4c-0.1,0 -0.1,0.6 0,0.7l0,0.6l-0.7,0.3l0.2,0l0,0.2l-0.2,0l0,0.4c0.2,0.1 0.1,0.5 0,0.6l0,0.6c0.1,0 0,0.5 -0.2,0.6c0,0 -0.1,0.3 -0.2,0.4c0.1,0.2 0.1,0.5 -0.2,0.8c-0.1,0 -0.1,0 0,0.2c0.1,0.1 0.1,0.2 0,0.4l0,0.4c0,0.1 -0.1,0.2 -0.4,0.2l0,0.2c0,0.1 0,0.3 -0.2,0.2c0,0.4 -0.2,0.3 -0.4,0.2l0,-0.2c-0.6,0.1 -0.4,0.6 -0.2,0.4c0.2,-0.1 0.3,0 0.4,0.2l-0.2,0l0,0.4c0,-0.1 -0.2,0.1 -0.2,0.2c0.1,0.2 0,0.5 -0.2,0.6c-0.4,0 -0.5,0.5 -0.4,0.6c-0.1,0.2 -0.3,0.5 -0.4,0.4c0,0 -0.2,0.1 -0.2,0.4l-0.6,0.4l0,0.4c0.2,0.4 -0.1,0.6 -0.4,0.6c0,0.1 0,0.4 -0.2,0.4c-0.2,0.1 -0.3,0.3 -0.4,0.4c0.1,0.1 0.1,0.1 0,0.2c0,0.1 -0.1,0.1 -0.2,0.2l0,0.2l-0.2,0c0.1,-0.1 -0.2,0 -0.2,0.2s-0.2,0.4 -0.2,0.4c-0.1,0 -0.2,0 -0.2,0.2c-0.1,0.2 -0.2,0.1 -0.4,0.2c-0.4,-0.2 -0.5,-0.1 -0.4,0.2c-0.1,0 -0.1,0 0,0.2c-0.1,0.2 -0.3,0.3 -0.4,0.2c-0.2,0.1 -0.3,0.1 -0.4,0.2c0,0.2 0,0.3 -0.2,0.2c-0.4,0.1 -0.6,0.1 -0.8,0.2c0.1,0.3 -0.1,0.4 -0.6,0.4l-0.2,0.2l-0.2,0c0.2,0.2 0.1,0.4 -0.2,0.4l-0.2,0l0,0.2l-0.4,0l0,-0.3l-0.2,0l-0.4,0.4l-0.2,-0.2l-0.6,0c-0.2,-0.2 -0.5,0 -0.6,0.2l0.2,0.4l0.2,0l-0.8,0.2l-0.2,0.2l-0.2,-0.2l-0.4,0c0,-0.1 -0.1,-0.1 -0.2,0.2l-0.2,0l0,0.3l-0.4,0l0,-0.2c0.1,0.1 0.2,-0.1 0.2,-0.2l0,-0.4c0.1,-0.2 0.1,-0.2 0.2,-0.2c0.2,-0.1 0.3,-0.3 0,-0.4l0,-0.2c0.2,-0.1 0.2,-0.3 -0.2,-0.4l-0.2,0l-0.2,0.2l0,1c-0.1,-0.1 -0.2,0 -0.2,0.2l-0.2,0l0.2,0.2l0,0.2c0.3,0 0.2,0.2 0,0.4l-0.2,0l-0.2,-0.2l-0.2,0.2c-0.1,-0.4 -0.5,-0.4 -0.6,-0.2l-0.4,0c-0.1,-0.1 -0.2,-0.2 -0.4,0c-0.1,0.1 -0.3,0.1 -0.6,-0.2l0,-0.4c0.1,0 0.3,0.1 0.4,0.2c0.2,-0.2 0.2,-0.3 0,-0.4l-0.4,0c0,0.2 -0.3,0.4 -0.6,0.4l-0.3,0.2c-0.4,-0.1 -0.2,0.1 -0.2,0.4l0.2,0l0,0.4l-0.4,0c-0.1,-0.1 -0.1,-0.4 -0.2,-0.4c-0.1,-0.5 -0.4,-0.3 -0.3,0c0,0.7 -0.3,0.5 -0.6,0l-0.6,0c0.1,-0.4 -0.2,-0.3 -0.4,-0.2c-0.2,-0.1 -0.3,0 -0.4,0.2c0,0.4 -0.2,0.3 -0.2,0c-0.1,-0.3 -0.3,-0.2 -0.4,0l-0.2,-0.2l-0.2,0.2l-0.2,-0.2l-0.2,0c-0.1,-0.2 -0.2,-0.2 -0.4,0c-0.1,0.3 -0.2,0.2 -0.2,-0.2c0,-0.2 0,-0.2 -0.4,-0.2c-0.3,-0.2 -0.6,-0.1 -0.8,0c-0.3,0 -0.2,0.1 0,0.2c0.6,0 0.2,0.4 0,0.2c-0.1,-0.1 -0.1,-0.2 -0.2,-0.2l0,-0.2c-0.2,-0.2 -0.1,-0.4 0,-0.4c0,-0.2 0.2,-0.3 0.4,-0.4c-0.1,-0.6 -0.6,-0.2 -1,0.4c-0.2,0 -0.5,0.4 -1,0.2c-0.1,-0.1 -0.1,-0.2 -0.2,-0.2c0.1,-0.2 0.2,-0.3 0.2,-0.2c0.1,-0.2 0.2,-0.4 -0.2,-0.4l0,-0.2s-0.1,-0.1 -0.2,0c-0.1,0.2 -0.2,0.1 -0.4,0c0.1,-0.2 0,-0.3 -0.2,-0.2l0,0.2l-0.6,0l-0.2,-0.2c-0.1,0 -0.2,0 -0.4,0.2c-0.3,0.1 -0.6,0.1 -0.6,-0.2c-0.2,-0.2 -0.6,-0.4 -1,-0.4l-0.4,-0.2c0,0.1 -0.1,0 -0.2,0c0,-0.2 0.1,-0.3 0.2,-0.4l0,-0.2c-0.2,-0.5 0.4,-0.5 0.6,-0.4l0.4,0l0,-0.2l-0.2,0c0.2,-0.2 -0.1,-0.3 -0.2,-0.2c-0.2,0.1 -0.3,0.2 -0.6,0c-0.1,0 -0.2,-0.1 -0.2,-0.2c0.1,-0.1 0.1,-0.2 0.2,-0.2l0,-0.2c0,-0.5 -0.3,-0.3 -0.2,0l-0.2,0l-0.2,0.2c-0.2,0 -0.3,0.1 -0.4,0.2c0,0 0.1,0.2 0.2,0.2c0.3,-0.1 0.4,-0.1 0.6,0l0.4,0.2l-0.2,0.3l-0.2,0.2c0,-0.3 -0.4,-0.1 -0.4,0.2c0.4,0.4 0.1,0.4 -0.2,0.2c-0.9,-0.1 -0.9,-0.4 -0.8,-1.2l-0.2,0l-0.4,-0.2l-0.3,-0.1c-0.1,0 -0.1,-0.2 0,-0.2l-0.2,0c-0.2,-0.1 -0.3,-0.3 -0.2,-0.2l-0.4,0l-0.2,-0.2c0.1,-0.1 0,-0.2 -0.2,-0.2c-0.2,-0.1 -0.6,0 -0.6,-0.2l0,-0.2c-0.1,-0.3 -0.4,-0.6 -0.6,-0.6c-0.4,0.1 -0.3,-0.1 -0.2,-0.2c0.1,-0.2 -0.1,-0.7 -0.4,-0.8l-0.2,0l-0.4,-0.6l-0.8,0l-0.2,-0.4l0.2,-0.2l0.6,0l0,0.4l0.2,0l0.2,0.2c0.6,0 0.5,-0.2 0.2,-0.4l-0.4,-0.2c-0.4,-0.7 -1,-0.3 -1,0l-0.4,0l0.2,-0.2l-0.2,-0.2l-0.4,0l-0.2,-0.2l0.2,-0.2c0.4,-0.2 0.4,-0.4 0.2,-0.4l-0.4,-0.2c0,-0.1 0,-0.1 -0.2,-0.2c0.4,-0.3 0.3,-0.5 0,-0.6l-0.2,-0.4l-0.2,0l-0.2,0.2l-0.2,-0.2l-0.4,0l0.2,-0.2l0.4,0c0.5,0 0.3,-0.3 0,-0.4l-0.1,0l0,-0.2l0.2,0c0.2,-0.2 -0.1,-0.4 -0.4,-0.2l-0.2,0.2l-0.2,0.2c0,0.5 0,0.5 -0.4,0c-0.1,-0.2 -0.1,-0.2 0,-0.2c-0.1,0.1 -0.2,0 -0.2,-0.3zm28.3,8.1zm-34.5,-22.9c0,0.4 0.2,0.2 0.2,0c0.2,-0.1 0,-0.1 -0.2,0zm35.7,25.8c0,0.3 0.1,0.2 0.2,0c0,-0.1 -0.2,-0.2 -0.2,0zm-0.2,0c-0.5,0 -0.3,0.2 0,0.4c0.2,-0.2 0.1,-0.4 0,-0.4zm0.4,0.7l0,0.4l0.2,0c0.3,-0.2 0.1,-0.4 0,-0.4l-34.7,0l34.5,0zm2.1,4.6s-0.1,-0.1 -0.2,0c-0.2,0.1 0,0.3 0.2,0.2c0.1,0.1 0.2,0 0,-0.2zm0.4,1.4l-0.2,0.2l0.4,0c0.1,0 0.1,-0.3 -0.2,-0.2zm0.4,1.5c0.1,0.1 0.2,0 0.2,0c0.1,-0.2 0,-0.3 0,-0.2c-0.3,0 -0.4,0 -0.2,0.2zm2.3,2.5c-0.1,-0.3 -0.3,-0.2 -0.4,0c0.3,0.3 0.3,0.2 0.4,0zm0.4,-0.2l-0.2,0c-0.1,0.5 0.3,0.3 0.2,0zm0.3,0.1l-0.2,0c0.2,0.3 0.5,0.2 0.2,0zm-0.3,0.7l0,0.2l0.2,0c0.1,0 0.2,-0.2 0.2,-0.4c-0.1,-0.3 -0.4,-0.1 -0.4,0l0,0.2zm1.5,1c-0.1,-0.2 -0.3,-0.2 -0.4,0c0,0.5 0.3,0.3 0.4,0zm0.4,1.5c0,0.3 0.3,0.3 0.4,0c-0.1,-0.2 -0.3,-0.2 -0.4,0zm2.9,1.9c0,0.1 0.1,0.2 0.2,0l-0.2,0zm-0.2,1.4c0,0.2 0.1,0.2 0.2,0c-0.1,-0.1 -0.2,-0.1 -0.2,0zm1.5,0.4c-0.1,-0.1 -0.2,0 -0.2,0c0.3,0.3 0.3,0 0.2,0zm0.4,0.5l0.2,-0.2c0.2,-0.4 0,-0.4 -0.2,-0.2c-0.1,-0.2 -0.3,0.1 -0.2,0.2l0.2,0.2zm1.6,1.4c-0.2,0 0,0.2 0.2,0.2l0.2,0l0,-0.2c0.1,-0.1 0.2,-0.1 0.2,-0.4c0,-0.2 -0.4,-0.2 -0.4,0c-0.1,0.1 -0.2,0.3 -0.2,0.4zm2.9,0c0,-0.2 -0.3,-0.2 -0.4,0c0.1,0.3 0.4,0.2 0.4,0zm-1.2,1.9c0,0.2 0.3,0.1 0.4,0c-0.1,-0.3 -0.4,-0.3 -0.4,0zm2.1,-0.6s0.1,0 0,0c0.1,0.2 0,0.2 0,0zm0.6,0.2l0,-0.2l-0.2,0.2l0.2,0zm-0.6,0.8c0.5,0.2 0.6,0 0.6,-0.4c-0.1,-0.1 -0.4,-0.2 -0.6,0c-0.2,0.2 -0.2,0.3 0,0.4zm6.4,1.8l0.2,0c-0.2,-0.2 -0.2,-0.2 -0.2,0zm0.5,-0.5c0,0.3 0.2,0.2 0.2,0c0.1,-0.1 -0.2,0 -0.2,0zm0.8,0.4c0,-0.3 -0.2,-0.3 -0.2,0c0,0.4 0.3,0.4 0.2,0zm0.6,0.2c0.1,-0.1 -0.1,-0.1 -0.2,0c0.1,0.4 0.3,0.4 0.2,0zm7.3,-2.1l-0.2,0.2l0.2,0l0.2,0.4l0.2,0l0,-0.2l0.2,0.2c0.6,0 0.1,-0.3 -0.4,-0.4l0,-0.4c0.6,-0.6 0.2,-0.7 0,-0.6l-0.2,0.8zm1.5,0.2l0.2,0c-0.5,-0.2 -0.3,0.1 -0.2,0zm0.4,-0.9c-0.2,0 -0.2,0 -0.2,0.2l0.2,0l0,-0.2zm0.4,-0.1c0,0.2 0.1,0.1 0.2,0l-0.2,0zm1.9,-0.3c0.2,-0.1 0.2,-0.1 0.2,-0.2c-0.1,-0.3 -0.4,-0.2 -0.6,-0.2c-0.1,0.2 0,0.4 0.4,0.4zm-0.4,0.3c-0.2,0 -0.1,0.2 0,0.2l0,-0.2zm1,-0.7c-0.1,-0.1 -0.2,0 -0.2,0l0,0.2l0.2,0l0,0.2l0.2,0l0,-0.4l-0.2,0zm-0.2,-1.4c0,0.3 0.4,0.3 0.8,0.2c0.2,0.1 0.2,0.1 0.4,-0.2c0.1,-0.1 0.1,-0.3 -0.2,-0.2l-0.2,0l-0.2,-0.2l-0.2,0c-0.5,-0.3 -0.6,0.3 -0.4,0.4zm0.6,-0.7c-0.1,-0.1 -0.3,-0.1 -0.4,0c0.1,0.2 0.3,0.2 0.4,0zm2.3,-0.8c-0.7,0 -0.5,0.5 -0.2,0.6c0.5,-0.2 0.4,-0.6 0.2,-0.6zm-0.6,-0.4c0.2,0.1 0.2,0.2 0.4,0c0.3,0 0.3,0 0.2,-0.2c-0.1,-0.3 -0.3,-0.3 -0.4,-0.2c-0.2,0.3 -0.2,0.3 -0.2,0.4zm2.5,-5.2l0.2,0c0.2,0.1 0.4,0.1 0.4,0l0,-0.4l-0.2,-0.2c0,0.1 -0.4,0.1 -0.4,0l0,-22.3l0,22.9zm1,0l0.2,0l-0.2,0zm-0.2,-0.4l0.4,0c-0.2,-0.4 -0.4,-0.2 -0.6,0l0.2,0zm0.6,-0.3c-0.1,0 -0.2,0 -0.2,0.2c0.2,0.4 0.7,0.2 0.8,0c-0.1,-0.3 -0.2,-0.5 -0.2,-0.6c0.1,-0.2 0.1,-0.3 -0.2,-0.6c-0.3,-0.1 -0.5,0.2 -0.2,0.4l0,0.6zm-42.4,-31.2c-0.2,0 -0.4,0.1 -0.2,0.2c0.2,0.3 0.3,0 0.2,-0.2zm42.6,32.1c0,-0.1 0,-0.2 -0.2,-0.2l-0.2,0.4c0.1,0.5 0.5,0.1 0.2,-0.2l0.2,0zm0.5,0.6c-0.2,0 -0.1,0.3 0,0.4l0.2,0c0.1,0 0.1,-0.4 0,-0.4c0.1,-0.1 -0.2,0 -0.2,0zm-1.5,-1c-0.2,0 -0.2,0.1 0,0.2l0,-0.2zm-0.6,0.2l0.2,0l0,-0.2c-0.1,-0.1 -0.2,0.1 -0.2,0.2zm0,-0.9l-0.2,-0.2c-0.1,-0.1 -0.3,0 -0.2,0.2l0.4,0zm-1.7,0.9c-0.1,0 -0.2,0.1 -0.2,0.2c0.2,0.1 0.3,0 0.2,-0.2zm-0.4,0c0.2,-0.1 0.1,-0.4 0,-0.4c-0.4,0 -0.4,0.2 0,0.4zm1.4,-5.5c0,0.1 -0.1,0.2 0,0zm1.5,-1.2c0,0.3 0.3,0.2 0.2,0c0.1,-0.4 -0.2,-0.4 -0.2,0zm1.2,1.4l0,-0.4c-0.2,-0.1 -0.2,0.2 0,0.4zm2.8,0.9c-0.4,-0.2 -0.5,0.2 -0.2,0.6c0.2,0.2 0.5,0.2 0.6,0c0.2,0.1 0.3,-0.4 0,-0.4c-0.1,-0.1 -0.2,-0.2 -0.4,-0.2zm5.2,4.2l-0.2,0c0.2,0.2 0.2,0 0.2,0zm-1.3,0.8c0.3,0.1 0.4,-0.1 0.4,-0.2c-0.2,-0.2 -0.5,-0.2 -0.6,0c0.1,0.2 0.1,0.2 0.2,0.2zm0.2,3.5c0.1,-0.1 0,-0.2 -0.2,0c0.1,0.1 0.2,0.1 0.2,0zm0.2,1.5c0,0.2 0.2,0.1 0.2,-0.2l-0.2,0c-0.1,-0.1 -0.2,0 0,0.2zm0.5,-0.2c0.1,0.2 0,0.2 0,0zm0.6,0c-0.1,0 -0.3,-0.1 -0.2,0.2c0.2,0.2 0.2,-0.1 0.2,-0.2z"/>
 </g>
</svg>