<svg width="66" height="48.4" xmlns="http://www.w3.org/2000/svg" xml:space="preserve" style="enable-background:new 0 0 80.4 94.4;" version="1.1">
 <style type="text/css">.st0{fill:none;stroke:#636466;stroke-width:0.325;stroke-miterlimit:1;}
	.st1{fill:#636466;}
	.st2{fill:#008061;}</style>

 <g>
  <title>background</title>
  <rect fill="none" id="canvas_background" height="50.4" width="68" y="-1" x="-1"/>
 </g>
 <g>
  <title>Layer 1</title>
  <rect id="svg_1" height="37.3" width="47.9" class="st0" y="9.86058" x="8.902824"/>
  <line id="svg_2" y2="43.16058" x2="8.902824" y1="43.16058" x1="56.802824" class="st0"/>
  <line id="svg_3" y2="38.96058" x2="8.902824" y1="38.96058" x1="56.802824" class="st0"/>
  <line id="svg_4" y2="30.86058" x2="8.902824" y1="30.86058" x1="56.802824" class="st0"/>
  <line id="svg_5" y2="26.66058" x2="8.902824" y1="26.66058" x1="56.802824" class="st0"/>
  <line id="svg_6" y2="22.36058" x2="8.902824" y1="22.36058" x1="56.802824" class="st0"/>
  <line id="svg_7" y2="18.16058" x2="8.902824" y1="18.16058" x1="56.802824" class="st0"/>
  <line id="svg_8" y2="13.96058" x2="8.902824" y1="13.96058" x1="56.802824" class="st0"/>
  <line id="svg_9" y2="9.86058" x2="53.002824" y1="47.16058" x1="53.002824" class="st0"/>
  <line id="svg_10" y2="9.86058" x2="48.902824" y1="47.16058" x1="48.902824" class="st0"/>
  <line id="svg_11" y2="9.86058" x2="41.002824" y1="47.16058" x1="41.002824" class="st0"/>
  <line id="svg_12" y2="9.86058" x2="37.002824" y1="47.16058" x1="37.002824" class="st0"/>
  <line id="svg_13" y2="9.86058" x2="33.002824" y1="47.16058" x1="33.002824" class="st0"/>
  <line id="svg_14" y2="9.86058" x2="28.902824" y1="47.16058" x1="28.902824" class="st0"/>
  <line id="svg_15" y2="9.86058" x2="24.902824" y1="47.16058" x1="24.902824" class="st0"/>
  <line id="svg_16" y2="9.86058" x2="20.902824" y1="47.16058" x1="20.902824" class="st0"/>
  <line id="svg_17" y2="9.86058" x2="17.002824" y1="47.16058" x1="17.002824" class="st0"/>
  <line id="svg_18" y2="9.86058" x2="13.002824" y1="47.16058" x1="13.002824" class="st0"/>
  <line id="svg_19" y2="34.86058" x2="8.902824" y1="34.86058" x1="56.802824" class="st0"/>
  <line id="svg_20" y2="9.86058" x2="44.902824" y1="47.16058" x1="44.902824" class="st0"/>
  <polygon id="svg_25" points="41.00282946228981,46.4605827331543 56.00282946228981,30.960582733154297 56.00282946228981,30.960582733154297 48.80282488465309,23.360576629638672 45.502825647592545,27.06058120727539 44.902823358774185,26.66058349609375 48.702826410532,22.560577392578125 56.80282488465309,30.860576629638672 41.00282946228981,47.160579681396484 8.702823549509048,14.160579681396484 9.102824121713638,13.760581970214844 " class="st1"/>
  <path id="svg_26" d="m16.602824,36.06058c0.1,-0.1 -0.1,-0.3 -0.4,-0.2c-0.1,-0.5 -0.4,-0.4 -0.4,-0.6c-0.2,-0.1 0.3,-0.5 0.4,-0.4l-0.2,-0.2l0,-0.2l0,0l-0.2,0l-0.4,-0.4c-0.3,-0.2 -0.4,-0.3 -0.2,-0.4c0.2,-0.2 -0.2,-0.5 -0.4,-0.4c0,0.1 -0.2,0 -0.2,-0.2l-0.1,-0.3c-0.2,0.1 -0.3,0 -0.2,-0.2c0.1,-0.2 0,-0.2 -0.2,-0.2c-0.4,0 -0.4,-0.2 -0.2,-0.4c0.3,0 0.2,-0.1 0,-0.2l-0.4,0l0,-0.2l0.2,-0.4l-0.2,-0.4c-0.3,0.5 -0.4,-0.2 -0.2,-0.4l-0.2,-0.2c-0.1,0 -0.3,-0.4 -0.4,-0.8c-0.3,0 -0.3,-0.4 0,-0.4l0.2,0c0.5,0.1 0.3,-0.3 -0.2,-0.4c-0.1,-0.1 -0.1,0 -0.2,0l-0.2,-0.2l0,-0.2l-0.2,-0.2l0.2,-0.2l0.2,-0.2l-0.2,-0.4l-0.2,0c-0.1,0 -0.1,-0.2 0,-0.4c-0.1,-0.1 -0.3,-0.2 -0.2,-0.2l0,-0.2l-0.4,-0.2l0,-0.6l-0.2,-0.2l0,-0.4l-0.2,-0.2c-0.4,0 -0.3,-0.1 0,-0.2c0,-0.1 -0.1,-0.2 -0.4,-0.2c-0.2,0 -0.3,-0.1 -0.4,-0.2l0,0c0.1,0 0.2,-0.1 0.2,-0.2c0.4,0 0.4,-0.2 0.2,-0.4l0,0.2c0.2,0 0.1,-0.2 0,-0.2l0,-0.2c-0.3,0.1 -0.3,-0.3 -0.2,-0.4c0.2,-0.2 0.2,-0.3 -0.2,-0.6l0,-0.4l-0.4,-0.2l0,-0.2l-0.2,-0.2l0,0l0.2,0c0.5,-0.1 0.2,-0.7 -0.2,-0.8l0,0l0.2,-0.2c0.3,0 0.3,-0.2 0.2,-0.4l0,0l0,-0.2l-0.2,-0.2c-0.2,0.1 -0.3,0 -0.2,-0.4c-0.1,0 -0.1,-0.1 0,-0.2c0.3,-0.3 0.2,-0.3 -0.2,-0.4c-0.5,0 -0.3,-0.4 0,-0.4c0.2,-0.1 0.3,-0.3 0,-0.4c-0.1,-0.1 -0.2,-0.3 -0.2,-0.4l-0.2,-0.2l0,-0.2l0.2,0c-0.1,-0.2 0,-0.4 0,-0.4c0.1,-0.3 0.1,-0.5 -0.2,-0.6l0,-0.2l0.2,0l-0.2,-0.2c-0.5,0.1 -0.4,-0.6 -0.4,-0.8c-0.1,-0.2 0,-0.4 0,-0.6c0,-0.2 0,-0.3 0,-0.4l0,-1.5l0,0l0,-0.2l-0.4,-0.2c0.1,-0.1 -0.1,-0.3 -0.2,-0.4l0,-0.2c0.2,-0.1 0.1,-0.5 0,-0.8l0.2,-0.4c0.4,0 0.1,-0.3 -0.2,-0.4l0,-0.2l0.2,-0.2c0.1,0 0.1,-0.1 0,-0.2l-0.2,-0.4l0,0.1c-0.2,-0.4 -0.1,-0.6 0,-0.8c0.1,0 0,-0.4 -0.2,-0.8l0,-0.2c-0.1,-0.2 -0.1,-0.3 0.2,-0.4c0.1,-0.1 0,-0.3 0,-0.6c-0.6,-0.4 -0.2,-0.4 0,-1l0,-0.2l0,0l0,0l0,0l0,-0.4c-0.3,-0.3 -0.1,-0.6 0,-0.6c0.1,-0.1 0.1,-0.1 0.2,-0.2c-0.1,-0.1 -0.1,-0.2 0,-0.2l0,-0.4c-0.3,0.1 -0.2,-0.1 -0.2,-0.2c0.1,-0.2 0,-0.2 -0.2,-0.2l0,-0.2c0.1,0 0.2,-0.1 0.2,-0.2c0,-0.1 0.1,-0.2 0.2,-0.2c-0.1,-0.1 -0.1,-0.3 0,-0.4c0,-0.1 0,-0.3 0,-0.4c-0.2,-0.1 -0.2,-0.4 0,-0.4c0,-0.1 0.1,-0.3 0.2,-0.4c-0.1,-0.1 -0.1,-0.2 0,-0.2c0.1,-0.3 0.2,-0.3 0.4,0l0,0.6c0.1,-0.1 0.1,0 0,0l0,0.4c0.2,0 0.2,0.2 0,0.4c0.1,0 0.1,0.1 0.2,0.2l0,0.4c0.1,0 0.1,0.2 0,0.4c0,0 0,0.1 0,0l0,0.4l0,0l0,1.3l0,0.2l0,0.4c0.1,0 0.1,0.1 0,0.2l0,0.4c0.2,-0.1 0.3,0.1 0.2,0.2c0,0.2 0,0.6 0.2,0.8c-0.1,0.3 -0.1,0.5 0,0.6c0,0.2 0.1,1.7 0.2,1.9c0.2,0 0.2,1 0,1.3c0.2,0.3 0.2,0.5 0.2,0.8c0,0.1 0.2,0.6 0.2,1l0,0.2c0,0 0,0 0,0.2l0,0c-0.1,0 0,0.2 0,0.4c0.1,-0.1 0.2,0 0.2,0.2c0,0 -0.1,0 -0.2,0l0,0.2c0.3,0.1 0.3,0.8 0.2,1c0.3,0.1 0.5,1.2 0.4,1.3l0.2,0.4l-0.2,0l0,0.4c0.2,0.2 0.2,0.3 0.2,0.8c0.2,0.1 0.4,0.8 0.4,1.2c0.2,0.1 0.2,0.6 0.2,0.6l0,0.4c0,0.1 0.1,0.2 0.2,0.4c-0.1,0.2 0,0.2 0,0.4c0.1,0.3 0.1,0.4 0.2,0.6c0,0.1 0.3,0.8 0.4,1.2c0.1,0.2 0.2,0.5 0.2,0.8c0,0 0.2,0.5 0.2,0.5c-0.1,0.2 -0.1,0.2 0,0.2l0.1,0.3c0.1,-0.2 0.2,0.5 0.2,0.6c0.1,0.2 0.1,0.2 0.2,0.2l0,0l0,0c0.1,0.2 0.1,0.6 0,0.6l0,0.4c0.1,0.1 0.2,0.2 0.2,0.4c0,0.1 0,0.3 0,0.6c0.4,-0.2 0.6,0.4 0.6,1c0.2,0.1 0.3,0.1 0.4,0.2c-0.1,0.3 0,0.6 0,0.8c0.2,0.1 0.4,0.3 0.4,0.4c0,0.3 0.2,0.6 0.2,0.6c0.5,0.5 0.5,0.6 0.6,0.8c0.1,0.2 0.3,0.3 0.2,0.6c0.1,-0.1 0.2,0 0.2,0.2c0.3,0.2 0.3,0.3 0.2,0.6c-0.1,0 0,0.3 0.2,0.4c0.7,0.3 0.7,0.4 0.8,0.8l0,-0.2c0.2,0.3 1,1.2 1.3,1.7c0.3,0 0.3,0.2 0.2,0.4c0.2,-0.1 0.4,0.2 0.4,0.4c0.2,0 0.4,0.3 0.2,0.5l0.4,0.2l0.2,0.2l0,0.2c0,0.1 0.1,0.1 0.2,0.2l0,0l0,0c0.1,0 0.2,0.1 0.4,0l0,0.2c-0.2,0.2 0,0.4 0.2,0.4c0.2,0.1 0.3,0.3 0.4,0.6c0,0 0.2,0.1 0.2,0.4l0.6,0.4c0.4,-0.2 0.4,0.1 0.4,0.4l0.2,0.2l0.2,0.2l0.2,0.2l-0.1,0l0.2,0.2l0.2,0l0.2,0.2l0.4,0.2l0.2,0.2c0,0.2 0.1,0.4 0.2,0.3c0.1,0 0.3,0.2 0.4,0.2l0.2,0.2c0.1,0 0.4,0.1 0.6,0.2c0.1,0.2 0.3,0.3 0.6,0.4c0.2,0.2 0.9,0.6 1.3,1l0,0l0,0c0.1,0 0.1,0 0,0.2c1.3,0.1 1.3,0.7 1.3,1.2l0.2,0l0,0l0.2,0l0.2,-0.2c0.5,-0.3 0.8,0 1,0.2c0,0 0.2,0 0.2,0.2l0,0c0.1,0 0.1,0 0.2,0.2c0,0.1 0.3,0.2 0.4,0.2c0.1,-0.1 0.3,-0.1 0.4,0l0.2,0l0.2,0l0.4,0.2c0.1,-0.1 0.3,0 0.4,0c0.1,0.2 0.3,0.2 0.4,0c0.1,0.1 0.3,0.1 0.4,0.2l0.6,0.2l0.2,0l0.2,0l0,0l0.2,0l0.2,0c0.5,-0.1 1,0.2 1.2,0.2l0.2,0.2l0,-0.2l0.2,0l0,0.2l0.6,0l-0.2,0l0,-0.2l0,0l0.2,0l0.2,0l0,0.2l0.4,0c0.1,0.1 0.6,0 0.8,-0.2l0.2,0l0,0l0.2,0l0,0l0.4,0l0,0l0,0l0.4,0c0.1,0.1 0.9,0.1 1,0c0,0.1 0.1,0.2 0.2,0c0.2,0.1 1.1,0 1.2,0c0.2,0.1 0.2,0 0.4,-0.2c0.2,0 0.8,-0.2 1,-0.2c0.2,0.1 0.8,-0.1 0.8,-0.2c0.1,-0.1 0.4,-0.3 0.6,-0.4c0.1,0 0.2,0 0.2,0c0.1,-0.1 0.2,-0.2 0.2,-0.2l0,0l0.2,0l0,0c0.1,-0.1 0.1,-0.1 0.2,0c0,-0.2 0.2,-0.4 0.4,-0.2c0.1,0.1 0.1,0 0.2,-0.2c0.1,-0.3 0.5,-0.4 0.8,-0.4c0.1,0.1 0.2,0 0.4,-0.2c0,-0.1 0.4,-0.3 0.6,-0.2c0.1,-0.1 0.3,-0.2 0.4,-0.2c0.1,-0.2 0.1,-0.2 0.2,-0.2l0,0c0.1,-0.1 0.3,0 0.4,0c0.2,0 0.3,-0.1 0.2,-0.2c0.1,-0.2 0.4,-0.5 0.6,-0.4c0.2,0 0.7,-0.2 0.8,-0.6c0,-0.4 0.4,-0.6 0.6,-0.6c0.2,0.3 0.3,0 0.4,-0.4l0,0l0,-0.2c-0.1,0.1 0,0.1 0.2,0c0.3,0.2 0.4,0 0.4,-0.2c0.1,-0.5 0,-0.4 0.2,-0.6l0,0l0,-0.2l0.2,0l0,-0.2l0.2,0l0,-0.2l0,0l0.2,-0.2l0.2,-0.2l-0.4,0c0.1,-0.1 0.1,-0.1 0,0c0,-0.3 0.1,-0.4 0.2,-0.4c0.1,0 0.3,-0.1 0.2,-0.2c-0.3,-0.4 0,-0.5 0.2,-0.6c0.1,-0.2 0.2,-0.2 0,-0.4c0,-0.1 0,-0.1 0,-0.2l0.4,-0.2l0,0l0,0l0,-0.2l0,-0.2c0,0 0,-0.2 0.2,-0.4c-0.1,0 0.1,-0.1 0.2,-0.2c-0.1,-0.3 -0.1,-0.4 0,-0.5c0,0 0.1,0 0,-0.2c0,-0.1 0.1,-0.3 0.2,-0.4c0.1,0 0.2,-0.2 0.2,-0.2c-0.2,-0.3 -0.1,-0.3 0,-0.4c0,0 0.1,-0.2 0,-0.4c0,0 0,-0.1 0.2,-0.2c-0.1,-0.1 0,-0.1 0,-0.2c-0.1,-0.3 -0.1,-0.9 0,-1.2c-0.1,-0.1 0,-0.1 0,-0.2c-0.4,-0.3 -0.3,-0.5 0,-0.6l0,-0.2c-0.2,-0.1 -0.1,-0.4 0,-0.4l0,-0.2l0,-0.2c0,-0.1 0,-0.2 0,-0.2c-0.2,-0.2 -0.1,-0.2 0,-0.2c0,-0.2 0,-0.2 0,-0.2c-0.2,-0.2 -0.2,-0.3 -0.2,-0.6c0.1,-0.1 0.1,-0.1 0,-0.4c-0.2,-0.2 -0.2,-0.2 0,-0.6c-0.2,-0.2 -0.2,-0.4 0,-0.6c0.1,-0.1 0.1,-0.1 0,-0.2l-0.4,-0.4c-0.1,-0.2 0,-0.3 -0.2,-0.4c-0.1,0 -0.2,-0.1 -0.2,-0.2c-0.3,-0.1 -0.2,-0.5 -0.2,-0.6l-0.2,-0.2c-0.4,-0.3 -0.2,-0.5 0,-0.6c0.4,-0.3 0,-0.5 -0.4,-0.4c-0.2,0.5 -0.3,0.4 -0.4,0.2c-0.2,0 -0.3,-0.1 -0.4,-0.2c0.1,-0.1 0.1,-0.1 0,-0.2l0,0l0,0c0.1,-0.1 0.1,-0.1 0,-0.2c-0.2,0.1 -0.4,0 -0.6,-0.2c0,0 0,-0.1 -0.2,-0.2c-0.1,0.1 -0.6,0 -0.8,-0.2c-0.2,0 -0.3,0 -0.4,-0.4c-0.1,0 -0.1,-0.2 -0.2,-0.2l0,0l-0.2,-0.2l-0.1,0.4c-0.1,0 -0.4,-0.1 -0.4,-0.2c0,-0.2 -0.2,-0.2 -0.2,0c-0.1,0 -0.7,0.3 -1.2,0.3l-0.1,-0.1c-0.3,0 -1,0.4 -1.2,0.8l-0.3,0.2c0,0.3 -0.1,0.4 -0.2,0.4c-0.3,0.1 -0.4,0.3 -0.2,0.4l0,0l0,0l-0.2,0.2l0,0.2l-0.2,0.2c-0.1,0.4 0,0.6 0.2,0.6c0.4,0 0.1,0 0.2,0l0.2,0.2c-0.1,-0.1 0.2,-0.2 0.4,-0.2c0.1,-0.2 0.4,-0.3 0.8,-0.2c0.4,-0.6 0.8,-0.3 0.8,0c0.1,0.2 0.6,0.4 0.8,0.4c0.2,-0.2 0.4,0.2 0.2,0.4l0,0.2l0.2,0.2l0,0.2l0.4,0c0.1,0 0.1,0.3 -0.2,0.3l-0.2,0.2c-0.2,0.3 0.1,0.3 0.2,0.2c0.3,-0.1 0.3,0.3 0.2,0.8l0,0.2l0.2,0.2c0.1,0.2 0.1,0.3 0,0.4c-0.2,0 -0.5,0.2 -0.6,0c-0.2,0 -0.3,0 -0.4,-0.2l-0.2,0.4l-0.2,0l-0.4,0l-0.3,0.1l0,0c-0.2,0.3 -0.3,0.3 -0.4,0.2c-0.1,0 -0.2,0.1 -0.4,0.4c-0.2,0.1 -0.4,0.1 -0.4,0c0.1,-0.3 -0.1,-0.5 -0.2,-0.4l-0.2,0.2l-0.2,0l0,0.2l-0.2,0c-0.5,-0.2 -0.3,-0.2 0,-0.4l0.2,0.2l0.2,-0.2l0,-0.4l0,0l0,-0.2l-0.2,-0.2c-0.2,0.1 -0.3,0 -0.2,-0.2c-0.1,-0.1 -0.4,-0.1 -0.4,0l0,0.2c0,0.2 0,0.2 0,0.2c0,0.1 -0.2,0.2 -0.2,-0.2c-0.1,0 -0.2,0 -0.4,0c-0.4,0.2 -0.5,-0.1 -0.4,-0.4c0.1,0 0.1,-0.1 -0.2,-0.2l0,0l-0.2,-0.2c0.1,0 0,-0.1 -0.2,-0.2c-0.1,0.1 -0.1,0.1 -0.2,0c-0.3,-0.2 -0.4,-0.3 -0.2,-0.4c0.2,-0.2 0.1,-0.3 -0.2,-0.4l0,-0.4l0,0c-0.3,-0.4 0.1,-0.6 0.2,-0.4c0.6,-0.2 0.3,-0.5 0,-0.4c0,0.1 -0.1,0.1 -0.3,0c-0.2,-0.4 -0.1,-0.6 0.2,-0.8l0,-0.2c-0.4,-0.1 -0.2,-0.3 -0.2,-0.4l0.2,-0.2l0,0l0.2,-0.2c0.3,0 0.2,-0.2 0,-0.4c-0.2,0.2 -0.2,-0.1 -0.2,-0.2l0,-0.4c0.1,0 0.1,-0.1 0.2,-0.2c-0.1,0 0,-0.2 0,-0.4c0.3,0 0.5,-0.2 0.4,-0.2c0,-0.2 0,-0.2 0,-0.2c0.3,-0.2 0.4,-0.5 0.2,-0.6c0.1,-0.1 0.3,-0.4 0.4,-0.4c0.1,0 0.2,-0.1 0.2,-0.2c0.2,-0.1 0.2,-0.3 0.4,-0.4c0.1,0 0.3,-0.1 0.4,-0.2l0.4,-0.6c0,0.1 0.2,0 0.4,-0.2l0,0l0.2,0c0.6,0.1 0.6,0 0.6,-0.2c-0.2,-0.1 0,0 0.2,0l0,0l0.2,0l0.2,0l0,0c0.1,0.2 0.4,0.1 0.4,0l0.2,-0.4l0.2,0l0,0.4l0.4,-0.2l0,0l0.2,0l0.2,0c0.2,0.1 0.9,0.2 1.2,0.4c0.3,0.1 0.5,0.1 0.6,0.2l0.2,0c0.3,0 0.5,0.2 0.8,0.4l0,0.2l0.4,0c0.1,0 0.5,0.1 0.8,0.6l0.2,0.2l0.4,0.4l0.4,0.2l0,0.2l0,0l0.4,0.4l0,0l-0.2,0l-0.2,0l0,0l-0.2,-0.4c-0.1,-0.1 -0.2,-0.3 -0.6,-0.2c-0.1,-0.2 -0.3,0.2 -0.2,0.2c0.2,0 0.2,0.2 0.2,0.2c-0.1,0.1 -0.2,0.3 0.2,0.2c0.4,-0.1 0.4,0 0.4,0.2c-0.2,0.3 0.3,0.3 0.6,0.2l0,0l0,0c1.2,0.3 1.1,0.5 1.2,0.7c-0.3,0 -0.4,0.3 -0.2,0.4c0.3,0.1 0.2,0.4 0,0.4c-0.1,-0.1 -0.2,0 0,0.2l0,0c-0.1,0.1 0,0.2 0,0.2l0.2,0c-0.1,0 0,0 0,0c-0.1,0.2 0,0.3 0.2,0.4c0.3,0 0.3,0.3 0.2,0.6c-0.2,0 0,0.3 0.2,0.2c0.3,0 0.4,0.1 0.4,0.2c0.3,0.1 0.2,0.3 0,0.4c0,0 0,0.4 0,0.5c0.1,0.1 0.5,0.3 0.4,0.6c0.2,0.1 0.2,0.2 0,0.2c0.2,0.1 0.2,0.4 0,0.4c0.3,0.1 0.2,0.4 0,0.4c0.1,0 0.1,0.4 0,0.4c0.2,0.1 0.2,0.2 0.2,0.2c-0.1,0.1 -0.1,0.4 -0.2,0.4c0.2,0.1 0.4,0.2 0.4,0.4c0.1,0.1 0.1,0.2 0,0.2c-0.1,0 -0.2,0.2 -0.2,0.4c-0.1,0 -0.1,0.6 0,0.7c0,-0.1 0,0.3 0,0.6l-0.7,0.3l0.2,0l0,0.2l-0.2,0l0,0.4c0.2,0.1 0.1,0.5 0,0.6c0,0.2 0,0.3 0,0.6c0.1,0 0,0.5 -0.2,0.6c0,0 -0.1,0.3 -0.2,0.4c0.1,0.2 0.1,0.5 -0.2,0.8c-0.1,0 -0.1,0 0,0.2c0.1,0.1 0.1,0.2 0,0.4c0,0.2 0,0.2 0,0.4l0,0c0,0.1 -0.1,0.2 -0.4,0.2l0,0l0,0.2l0,0l0,0c0,0.1 0,0.3 -0.2,0.2c0,0.4 -0.2,0.3 -0.4,0.2l0,-0.2c-0.6,0.1 -0.4,0.6 -0.2,0.4c0.2,-0.1 0.3,0 0.4,0.2l-0.2,0l0,0.4c0,-0.1 -0.2,0.1 -0.2,0.2c0.1,0.2 0,0.5 -0.2,0.6c-0.4,0 -0.5,0.5 -0.4,0.6c-0.1,0.2 -0.3,0.5 -0.4,0.4c0,0 -0.2,0.1 -0.2,0.4l-0.6,0.4c0,0.1 0,0.3 0,0.4c0.2,0.4 -0.1,0.6 -0.4,0.6c0,0.1 0,0.4 -0.2,0.4c-0.2,0.1 -0.3,0.3 -0.4,0.4c0.1,0.1 0.1,0.1 0,0.2l0,0l0,0l0,0l0,0c0,0.1 -0.1,0.1 -0.2,0.2l0,0.2l-0.2,0c0.1,-0.1 -0.2,0 -0.2,0.2c0,0.2 -0.2,0.4 -0.2,0.4c-0.1,0 -0.2,0 -0.2,0.2c-0.1,0.2 -0.2,0.1 -0.4,0.2c-0.4,-0.2 -0.5,-0.1 -0.4,0.2l0,0c-0.1,0 -0.1,0 0,0.2c-0.1,0.2 -0.3,0.3 -0.4,0.2c-0.2,0.1 -0.3,0.1 -0.4,0.2c0,0.2 0,0.3 -0.2,0.2c-0.4,0.1 -0.6,0.1 -0.8,0.2c0.1,0.3 -0.1,0.4 -0.6,0.4c0,0 -0.1,0.1 -0.2,0.2l0,0l0,0c-0.1,0 -0.1,0 -0.2,0c0.2,0.2 0.1,0.4 -0.2,0.4l-0.2,0l0,0.2l-0.2,0l-0.2,0l0,-0.3l-0.2,0l-0.4,0.4l0,0l-0.2,-0.2l-0.6,0c-0.2,-0.2 -0.5,0 -0.6,0.2l0.2,0.4l0,0l0.2,0l-0.8,0.2l-0.2,0.2l-0.2,-0.2l-0.4,0c0,-0.1 -0.1,-0.1 -0.2,0.2l-0.2,0l0,0.1l0,0.2l-0.4,0l0,0l0,0l0,-0.2c0.1,0.1 0.2,-0.1 0.2,-0.2c0,-0.3 0,-0.5 0,-0.4l0,0c0.1,-0.2 0.1,-0.2 0.2,-0.2c0.2,-0.1 0.3,-0.3 0,-0.4c0,-0.1 0,-0.1 0,-0.2c0.2,-0.1 0.2,-0.3 -0.2,-0.4l0,0l0,0l-0.2,0l-0.2,0.2c0,0.2 0,0.4 0,0.6c0,0 0,0.2 0,0.4l0,0c-0.1,-0.1 -0.2,0 -0.2,0.2l-0.2,0l0,0l0.2,0.2l0,0.2c0.3,0 0.2,0.2 0,0.4l-0.2,0l0,0l-0.2,-0.2l-0.2,0.2l0,0c-0.1,-0.4 -0.5,-0.4 -0.6,-0.2l-0.4,0c-0.1,-0.1 -0.2,-0.2 -0.4,0c-0.1,0.1 -0.3,0.1 -0.6,-0.2l0,-0.4c0.1,0 0.3,0.1 0.4,0.2c0.2,-0.2 0.2,-0.3 0,-0.4l-0.4,0c0,0.2 -0.3,0.4 -0.6,0.4l-0.3,0.2c-0.4,-0.1 -0.2,0.1 -0.2,0.4l0.2,0l0,0l0,0.2l0,0l0,0.2l-0.2,0l0,0l0,0l-0.2,0l0,0c-0.1,-0.1 -0.1,-0.4 -0.2,-0.4c-0.1,-0.5 -0.4,-0.3 -0.3,0c0,0.7 -0.3,0.5 -0.6,0l-0.4,0l-0.2,0c0.1,-0.4 -0.2,-0.3 -0.4,-0.2c-0.2,-0.1 -0.3,0 -0.4,0.2c0,0.4 -0.2,0.3 -0.2,0c-0.1,-0.3 -0.3,-0.2 -0.4,0l-0.2,-0.2l-0.2,0.2l-0.2,-0.2l0,0l0,0l-0.2,0l0,0c-0.1,-0.2 -0.2,-0.2 -0.4,0c-0.1,0.3 -0.2,0.2 -0.2,-0.2c0,-0.2 0,-0.2 -0.4,-0.2c-0.3,-0.2 -0.6,-0.1 -0.8,0c-0.3,0 -0.2,0.1 0,0.2c0.6,0 0.2,0.4 0,0.2l0,0l0,0c-0.1,-0.1 -0.1,-0.2 -0.2,-0.2l0,-0.2c-0.2,-0.2 -0.1,-0.4 0,-0.4l0,0c0,-0.2 0.2,-0.3 0.4,-0.4c-0.1,-0.6 -0.6,-0.2 -1,0.4l0,0l0,0c-0.2,0 -0.5,0.4 -1,0.2c-0.1,-0.1 -0.1,-0.2 -0.2,-0.2l0,0c0.1,-0.2 0.2,-0.3 0.2,-0.2c0.1,-0.2 0.2,-0.4 -0.2,-0.4l0,-0.2c0,0 -0.1,-0.1 -0.2,0c-0.1,0.2 -0.2,0.1 -0.4,0c0.1,-0.2 0,-0.3 -0.2,-0.2c0,0.3 0,0.2 0,0.2l0,0l-0.2,0l0,0l-0.2,0l0,0l-0.2,0l-0.2,-0.2c-0.1,0 -0.2,0 -0.4,0.2c-0.3,0.1 -0.6,0.1 -0.6,-0.2c-0.2,-0.2 -0.6,-0.4 -1,-0.4l-0.4,-0.2c0,0.1 -0.1,0 -0.2,0l0,0c0,-0.2 0.1,-0.3 0.2,-0.4l0,-0.2c-0.2,-0.5 0.4,-0.5 0.6,-0.4l0.4,0l0,-0.2l-0.2,0c0.2,-0.2 -0.1,-0.3 -0.2,-0.2c-0.2,0.1 -0.3,0.2 -0.6,0c-0.1,0 -0.2,-0.1 -0.2,-0.2l0,0c0.1,-0.1 0.1,-0.2 0.2,-0.2l0,-0.2c0,-0.5 -0.3,-0.3 -0.2,0l-0.2,0l-0.2,0.2c-0.2,0 -0.3,0.1 -0.4,0.2l0,0c0,0 0.1,0.2 0.2,0.2c0.3,-0.1 0.4,-0.1 0.6,0l0.4,0.2l-0.2,0.3l-0.2,0.2c0,-0.3 -0.4,-0.1 -0.4,0.2c0.4,0.4 0.1,0.4 -0.2,0.2l0,0c-0.9,-0.1 -0.9,-0.4 -0.8,-1.2l0,0l0,0l-0.2,0l-0.4,-0.2l-0.3,-0.1c-0.1,0 -0.1,-0.2 0,-0.2c-0.1,0 -0.3,0 -0.2,0c-0.2,-0.1 -0.3,-0.3 -0.2,-0.2l-0.4,0l-0.2,-0.2c0.1,-0.1 0,-0.2 -0.2,-0.2c-0.2,-0.1 -0.6,0 -0.6,-0.2l0,-0.2l0,0l0,0c-0.1,-0.3 -0.4,-0.6 -0.6,-0.6c-0.4,0.1 -0.3,-0.1 -0.2,-0.2c0.1,-0.2 -0.1,-0.7 -0.4,-0.8l-0.2,0l-0.4,-0.6l-0.8,0l-0.2,-0.4l0.2,-0.2l0.2,0l0.2,0l0.2,0l0,0.4l0.2,0l0.2,0.2c0.6,0 0.5,-0.2 0.2,-0.4l-0.4,-0.2c-0.4,-0.7 -1,-0.3 -1,0l-0.4,0l0.2,-0.2l-0.2,-0.2l-0.4,0l-0.2,-0.2l0,0l0.2,-0.2c0.4,-0.2 0.4,-0.4 0.2,-0.4c-0.2,-0.1 -0.2,-0.1 -0.4,-0.2l0,0c0,-0.1 0,-0.1 -0.2,-0.2c0.4,-0.3 0.3,-0.5 0,-0.6l-0.2,-0.4l-0.2,0l-0.2,0.2l-0.2,-0.2l-0.4,0l0,0l0.2,-0.2l0.4,0c0.5,0 0.3,-0.3 0,-0.4l-0.1,0l0,-0.2l0.2,0l0,0c0.2,-0.2 -0.1,-0.4 -0.4,-0.2l-0.2,0.2l-0.2,0.2c0,0.5 0,0.5 -0.4,0c-0.1,-0.2 -0.1,-0.2 0,-0.2l0,0l0,0c-0.1,0.1 -0.2,0 -0.2,-0.3zm28.3,8.1l0,0l0,0l0,0l0,0zm-34.5,-22.9c0,0.4 0.2,0.2 0.2,0c0.2,-0.1 0,-0.1 -0.2,0l0,0zm1.2,2.9c0,0.3 0.1,0.2 0.2,0c0,-0.1 -0.2,-0.2 -0.2,0l0,0zm-0.2,0c-0.5,0 -0.3,0.2 0,0.4c0.2,-0.2 0.1,-0.4 0,-0.4l0,0zm0.4,0.7l0,0.4l0.2,0c0.3,-0.2 0.1,-0.4 0,-0.4l-0.2,0zm2.1,4.6c0,0 -0.1,-0.1 -0.2,0c-0.2,0.1 0,0.3 0.2,0.2c0.1,0.1 0.2,0 0,-0.2l0,0zm0.4,1.4l0,0l-0.2,0.2l0.4,0c0.1,0 0.1,-0.3 -0.2,-0.2l0,0zm0.4,1.5c0.1,0.1 0.2,0 0.2,0c0.1,-0.2 0,-0.3 0,-0.2c-0.3,0 -0.4,0 -0.2,0.2zm2.3,2.5c-0.1,-0.3 -0.3,-0.2 -0.4,0c0.3,0.3 0.3,0.2 0.4,0zm0.4,-0.2l-0.2,0c-0.1,0.5 0.3,0.3 0.2,0zm0.3,0.1c0,0 0,0 -0.2,0c0.2,0.3 0.5,0.2 0.2,0zm-0.3,0.7l0,0.2l0.2,0c0.1,0 0.2,-0.2 0.2,-0.4c-0.1,-0.3 -0.4,-0.1 -0.4,0l0,0.2zm1.5,1c-0.1,-0.2 -0.3,-0.2 -0.4,0c0,0.5 0.3,0.3 0.4,0zm0.4,1.5c0,0.3 0.3,0.3 0.4,0c-0.1,-0.2 -0.3,-0.2 -0.4,0l0,0zm2.9,1.9c0,0.1 0.1,0.2 0.2,0c0,0 -0.2,0 -0.2,0l0,0zm-0.2,1.4c0,0.2 0.1,0.2 0.2,0c-0.1,-0.1 -0.2,-0.1 -0.2,0l0,0zm1.5,0.4c-0.1,-0.1 -0.2,0 -0.2,0c0.3,0.3 0.3,0 0.2,0zm0.4,0.5l0.2,-0.2c0.2,-0.4 0,-0.4 -0.2,-0.2c-0.1,-0.2 -0.3,0.1 -0.2,0.2l0.2,0.2zm1.6,1.4c-0.2,0 0,0.2 0.2,0.2l0.2,0l0,-0.2c0.1,-0.1 0.2,-0.1 0.2,-0.4c0,-0.2 -0.4,-0.2 -0.4,0c-0.1,0.1 -0.2,0.3 -0.2,0.4zm2.9,0c0,-0.2 -0.3,-0.2 -0.4,0c0.1,0.3 0.4,0.2 0.4,0zm-1.2,1.9c0,0.2 0.3,0.1 0.4,0c-0.1,-0.3 -0.4,-0.3 -0.4,0l0,0zm2.1,-0.6c0,0 0.1,0 0,0c0.1,0.2 0,0.2 0,0zm0.6,0.2l0,0l0,-0.2l0,0l-0.2,0.2l0.2,0zm-0.6,0.8c0.5,0.2 0.6,0 0.6,-0.4c-0.1,-0.1 -0.4,-0.2 -0.6,0c-0.2,0.2 -0.2,0.3 0,0.4zm6.4,1.8c0.1,0 0.1,0 0.2,0c-0.2,-0.2 -0.2,-0.2 -0.2,0l0,0zm0.5,-0.5c0,0.3 0.2,0.2 0.2,0c0.1,-0.1 -0.2,0 -0.2,0l0,0zm0.8,0.4c0,-0.3 -0.2,-0.3 -0.2,0c0,0.4 0.3,0.4 0.2,0zm0.6,0.2c0.1,-0.1 -0.1,-0.1 -0.2,0c0.1,0.4 0.3,0.4 0.2,0zm7.3,-2.1l-0.2,0.2l0.2,0l0.2,0.4l0.2,0l0,-0.2l0.2,0.2c0.6,0 0.1,-0.3 -0.4,-0.4l0,-0.4c0.6,-0.6 0.2,-0.7 0,-0.6l-0.2,0.8zm1.5,0.2l0.2,0l0,0c-0.5,-0.2 -0.3,0.1 -0.2,0zm0.4,-0.9c-0.2,0 -0.2,0 -0.2,0.2l0.2,0l0,-0.2l0,0zm0.4,-0.1c0,0.2 0.1,0.1 0.2,0l-0.2,0l0,0zm1.9,-0.3c0.2,-0.1 0.2,-0.1 0.2,-0.2c-0.1,-0.3 -0.4,-0.2 -0.6,-0.2c-0.1,0.2 0,0.4 0.4,0.4zm-0.4,0.3c-0.2,0 -0.1,0.2 0,0.2l0,-0.2l0,0zm1,-0.7c-0.1,-0.1 -0.2,0 -0.2,0l0,0.2l0.2,0l0,0.2l0.2,0l0,-0.4l-0.2,0zm-0.2,-1.4c0,0.3 0.4,0.3 0.8,0.2c0.2,0.1 0.2,0.1 0.4,-0.2c0.1,-0.1 0.1,-0.3 -0.2,-0.2l0,0l-0.2,0l0,0l-0.2,-0.2l-0.2,0l0,0c-0.5,-0.3 -0.6,0.3 -0.4,0.4l0,0zm0.6,-0.7c-0.1,-0.1 -0.3,-0.1 -0.4,0c0.1,0.2 0.3,0.2 0.4,0zm2.3,-0.8c-0.7,0 -0.5,0.5 -0.2,0.6c0.5,-0.2 0.4,-0.6 0.2,-0.6l0,0zm-0.6,-0.4c0.2,0.1 0.2,0.2 0.4,0c0.3,0 0.3,0 0.2,-0.2c-0.1,-0.3 -0.3,-0.3 -0.4,-0.2c-0.2,0.3 -0.2,0.3 -0.2,0.4zm2.5,-5.2l0.2,0c0.2,0.1 0.4,0.1 0.4,0l0,-0.4l0,0l-0.2,-0.2c0,0.1 -0.4,0.1 -0.4,0c0,0.1 0,0.4 0,0.4l0,0.2zm1,0l0.2,0l0,0l-0.2,0l0,0zm-0.2,-0.4l0,0l0,0l0.2,0l0.2,0l0,0c-0.2,-0.4 -0.4,-0.2 -0.6,0l0.2,0zm0.6,-0.3c-0.1,0 -0.2,0 -0.2,0.2c0.2,0.4 0.7,0.2 0.8,0c-0.1,-0.3 -0.2,-0.5 -0.2,-0.6c0.1,-0.2 0.1,-0.3 -0.2,-0.6c-0.3,-0.1 -0.5,0.2 -0.2,0.4c0,0.1 0,0.2 0,0.6zm-7.9,-8.3c-0.2,0 -0.4,0.1 -0.2,0.2c0.2,0.3 0.3,0 0.2,-0.2zm0.2,0.9c0,-0.1 0,-0.2 -0.2,-0.2l-0.2,0.4c0.1,0.5 0.5,0.1 0.2,-0.2l0.2,0zm0.5,0.6c-0.2,0 -0.1,0.3 0,0.4l0.2,0c0.1,0 0.1,-0.4 0,-0.4c0.1,-0.1 -0.2,0 -0.2,0l0,0zm-1.5,-1c-0.2,0 -0.2,0.1 0,0.2l0,-0.2l0,0zm-0.6,0.2l0.2,0l0,-0.2c-0.1,-0.1 -0.2,0.1 -0.2,0.2zm0,-0.9l0,0l-0.2,-0.2c-0.1,-0.1 -0.3,0 -0.2,0.2l0.4,0l0,0zm-1.7,0.9c-0.1,0 -0.2,0.1 -0.2,0.2c0.2,0.1 0.3,0 0.2,-0.2l0,0zm-0.4,0c0.2,-0.1 0.1,-0.4 0,-0.4c-0.4,0 -0.4,0.2 0,0.4zm1.4,-5.5l0,0c0,0.1 -0.1,0.2 0,0zm1.5,-1.2c0,0.3 0.3,0.2 0.2,0c0.1,-0.4 -0.2,-0.4 -0.2,0l0,0zm1.2,1.4l0,-0.4c-0.2,-0.1 -0.2,0.2 0,0.4zm2.8,0.9c-0.4,-0.2 -0.5,0.2 -0.2,0.6c0.2,0.2 0.5,0.2 0.6,0c0.2,0.1 0.3,-0.4 0,-0.4c-0.1,-0.1 -0.2,-0.2 -0.4,-0.2zm5.2,4.2l-0.2,0l0,0c0.2,0.2 0.2,0 0.2,0zm-1.3,0.8c0.3,0.1 0.4,-0.1 0.4,-0.2c-0.2,-0.2 -0.5,-0.2 -0.6,0c0.1,0.2 0.1,0.2 0.2,0.2zm0.2,3.5c0.1,-0.1 0,-0.2 -0.2,0c0.1,0.1 0.2,0.1 0.2,0zm0.2,1.5c0,0.2 0.2,0.1 0.2,-0.2l-0.2,0c-0.1,-0.1 -0.2,0 0,0.2l0,0zm0.5,-0.2l0,0c0.1,0.2 0,0.2 0,0zm0.6,0c-0.1,0 -0.3,-0.1 -0.2,0.2c0.2,0.2 0.2,-0.1 0.2,-0.2z" class="st2"/>
 </g>
</svg>